<mxfile host="65bd71144e">
    <diagram id="56R0733wzjq3iwMWSclb" name="Seite-1">
        <mxGraphModel dx="803" dy="639" grid="1" gridSize="10" guides="1" tooltips="1" connect="1" arrows="1" fold="1" page="1" pageScale="1" pageWidth="3300" pageHeight="4681" math="0" shadow="0">
            <root>
                <mxCell id="0"/>
                <mxCell id="1" parent="0"/>
                <mxCell id="34" value="Backend" style="shape=folder;fontStyle=1;spacingTop=10;tabWidth=40;tabHeight=14;tabPosition=left;html=1;movable=0;resizable=0;rotatable=0;deletable=0;editable=0;connectable=0;" parent="1" vertex="1">
                    <mxGeometry x="340" y="255" width="1210" height="660" as="geometry"/>
                </mxCell>
                <mxCell id="3" value="«component»&lt;br&gt;&lt;b&gt;JWT-Authentisierung&lt;/b&gt;" style="html=1;dropTarget=0;" parent="1" vertex="1">
                    <mxGeometry x="350" y="290" width="180" height="90" as="geometry"/>
                </mxCell>
                <mxCell id="4" value="" style="shape=module;jettyWidth=8;jettyHeight=4;" parent="3" vertex="1">
                    <mxGeometry x="1" width="20" height="20" relative="1" as="geometry">
                        <mxPoint x="-27" y="7" as="offset"/>
                    </mxGeometry>
                </mxCell>
                <mxCell id="5" value="«component»&lt;br&gt;&lt;b&gt;Schema-Validierung&lt;/b&gt;" style="html=1;dropTarget=0;" parent="1" vertex="1">
                    <mxGeometry x="670" y="290" width="180" height="90" as="geometry"/>
                </mxCell>
                <mxCell id="6" value="" style="shape=module;jettyWidth=8;jettyHeight=4;" parent="5" vertex="1">
                    <mxGeometry x="1" width="20" height="20" relative="1" as="geometry">
                        <mxPoint x="-27" y="7" as="offset"/>
                    </mxGeometry>
                </mxCell>
                <mxCell id="7" value="" style="rounded=0;orthogonalLoop=1;jettySize=auto;html=1;endArrow=none;endFill=0;sketch=0;sourcePerimeterSpacing=0;targetPerimeterSpacing=0;exitX=1;exitY=0.5;exitDx=0;exitDy=0;" parent="1" source="10" target="9" edge="1">
                    <mxGeometry relative="1" as="geometry">
                        <mxPoint x="200" y="360" as="sourcePoint"/>
                    </mxGeometry>
                </mxCell>
                <mxCell id="8" value="Vorfall eingegangen" style="rounded=0;orthogonalLoop=1;jettySize=auto;html=1;endArrow=halfCircle;endFill=0;entryX=0.5;entryY=0.5;endSize=6;strokeWidth=1;sketch=0;exitX=0;exitY=0.5;exitDx=0;exitDy=0;" parent="1" source="3" target="9" edge="1">
                    <mxGeometry x="1" y="-25" relative="1" as="geometry">
                        <mxPoint x="240" y="360" as="sourcePoint"/>
                        <mxPoint as="offset"/>
                    </mxGeometry>
                </mxCell>
                <mxCell id="9" value="" style="ellipse;whiteSpace=wrap;html=1;align=center;aspect=fixed;resizable=0;points=[];outlineConnect=0;sketch=0;" parent="1" vertex="1">
                    <mxGeometry x="280" y="330" width="10" height="10" as="geometry"/>
                </mxCell>
                <mxCell id="10" value="«Ressource»&lt;br&gt;&lt;b&gt;Vorfall-Eingang&lt;/b&gt;" style="html=1;dropTarget=0;" parent="1" vertex="1">
                    <mxGeometry x="40" y="290" width="180" height="90" as="geometry"/>
                </mxCell>
                <mxCell id="11" value="" style="shape=module;jettyWidth=8;jettyHeight=4;" parent="10" vertex="1">
                    <mxGeometry x="1" width="20" height="20" relative="1" as="geometry">
                        <mxPoint x="-27" y="7" as="offset"/>
                    </mxGeometry>
                </mxCell>
                <mxCell id="12" value="" style="rounded=0;orthogonalLoop=1;jettySize=auto;html=1;endArrow=none;endFill=0;sketch=0;sourcePerimeterSpacing=0;targetPerimeterSpacing=0;exitX=1;exitY=0.5;exitDx=0;exitDy=0;" parent="1" source="3" target="14" edge="1">
                    <mxGeometry relative="1" as="geometry">
                        <mxPoint x="530" y="345" as="sourcePoint"/>
                    </mxGeometry>
                </mxCell>
                <mxCell id="13" value="" style="rounded=0;orthogonalLoop=1;jettySize=auto;html=1;endArrow=halfCircle;endFill=0;entryX=0.5;entryY=0.5;endSize=6;strokeWidth=1;sketch=0;exitX=0;exitY=0.5;exitDx=0;exitDy=0;" parent="1" source="5" target="14" edge="1">
                    <mxGeometry relative="1" as="geometry">
                        <mxPoint x="630" y="325" as="sourcePoint"/>
                    </mxGeometry>
                </mxCell>
                <mxCell id="20" value="Benutzer authentifiziert" style="edgeLabel;html=1;align=center;verticalAlign=middle;resizable=0;points=[];" parent="13" vertex="1" connectable="0">
                    <mxGeometry x="0.6436" y="-5" relative="1" as="geometry">
                        <mxPoint x="-8" y="-20" as="offset"/>
                    </mxGeometry>
                </mxCell>
                <mxCell id="14" value="" style="ellipse;whiteSpace=wrap;html=1;align=center;aspect=fixed;resizable=0;points=[];outlineConnect=0;sketch=0;" parent="1" vertex="1">
                    <mxGeometry x="590" y="330" width="10" height="10" as="geometry"/>
                </mxCell>
                <mxCell id="18" value="" style="fontStyle=0;labelPosition=right;verticalLabelPosition=middle;align=left;verticalAlign=middle;spacingLeft=2;" parent="1" vertex="1">
                    <mxGeometry x="330" y="320" width="30" height="30" as="geometry"/>
                </mxCell>
                <mxCell id="23" value="«component»&lt;br&gt;&lt;b&gt;Relationale-Zuordnung&lt;/b&gt;" style="html=1;dropTarget=0;" parent="1" vertex="1">
                    <mxGeometry x="970" y="290" width="180" height="90" as="geometry"/>
                </mxCell>
                <mxCell id="24" value="" style="shape=module;jettyWidth=8;jettyHeight=4;" parent="23" vertex="1">
                    <mxGeometry x="1" width="20" height="20" relative="1" as="geometry">
                        <mxPoint x="-27" y="7" as="offset"/>
                    </mxGeometry>
                </mxCell>
                <mxCell id="25" value="" style="rounded=0;orthogonalLoop=1;jettySize=auto;html=1;endArrow=none;endFill=0;sketch=0;sourcePerimeterSpacing=0;targetPerimeterSpacing=0;exitX=1;exitY=0.5;exitDx=0;exitDy=0;" parent="1" source="5" target="28" edge="1">
                    <mxGeometry relative="1" as="geometry">
                        <mxPoint x="580" y="495" as="sourcePoint"/>
                    </mxGeometry>
                </mxCell>
                <mxCell id="26" value="" style="rounded=0;orthogonalLoop=1;jettySize=auto;html=1;endArrow=halfCircle;endFill=0;entryX=0.5;entryY=0.5;endSize=6;strokeWidth=1;sketch=0;exitX=0;exitY=0.5;exitDx=0;exitDy=0;" parent="1" source="23" target="28" edge="1">
                    <mxGeometry relative="1" as="geometry">
                        <mxPoint x="670" y="485" as="sourcePoint"/>
                    </mxGeometry>
                </mxCell>
                <mxCell id="27" value="Schema validiert" style="edgeLabel;html=1;align=center;verticalAlign=middle;resizable=0;points=[];" parent="26" vertex="1" connectable="0">
                    <mxGeometry x="0.6436" y="-5" relative="1" as="geometry">
                        <mxPoint x="-8" y="-20" as="offset"/>
                    </mxGeometry>
                </mxCell>
                <mxCell id="28" value="" style="ellipse;whiteSpace=wrap;html=1;align=center;aspect=fixed;resizable=0;points=[];outlineConnect=0;sketch=0;" parent="1" vertex="1">
                    <mxGeometry x="900" y="330" width="10" height="10" as="geometry"/>
                </mxCell>
                <mxCell id="37" value="«component»&lt;br&gt;&lt;b&gt;Application-Layer&lt;br&gt;Verschlüsselung&lt;/b&gt;" style="html=1;dropTarget=0;" parent="1" vertex="1">
                    <mxGeometry x="1320" y="290" width="180" height="90" as="geometry"/>
                </mxCell>
                <mxCell id="38" value="" style="shape=module;jettyWidth=8;jettyHeight=4;" parent="37" vertex="1">
                    <mxGeometry x="1" width="20" height="20" relative="1" as="geometry">
                        <mxPoint x="-27" y="7" as="offset"/>
                    </mxGeometry>
                </mxCell>
                <mxCell id="39" value="" style="rounded=0;orthogonalLoop=1;jettySize=auto;html=1;endArrow=none;endFill=0;sketch=0;sourcePerimeterSpacing=0;targetPerimeterSpacing=0;" parent="1" source="23" target="41" edge="1">
                    <mxGeometry relative="1" as="geometry">
                        <mxPoint x="1220" y="335" as="sourcePoint"/>
                    </mxGeometry>
                </mxCell>
                <mxCell id="40" value="in Relation gestellt" style="rounded=0;orthogonalLoop=1;jettySize=auto;html=1;endArrow=halfCircle;endFill=0;entryX=0.5;entryY=0.5;endSize=6;strokeWidth=1;sketch=0;exitX=0;exitY=0.5;exitDx=0;exitDy=0;" parent="1" source="37" target="41" edge="1">
                    <mxGeometry x="1" y="-25" relative="1" as="geometry">
                        <mxPoint x="1260" y="335" as="sourcePoint"/>
                        <mxPoint as="offset"/>
                    </mxGeometry>
                </mxCell>
                <mxCell id="41" value="" style="ellipse;whiteSpace=wrap;html=1;align=center;aspect=fixed;resizable=0;points=[];outlineConnect=0;sketch=0;" parent="1" vertex="1">
                    <mxGeometry x="1235" y="330" width="10" height="10" as="geometry"/>
                </mxCell>
                <mxCell id="42" value="«database»&lt;br&gt;&lt;b&gt;Tabellen&lt;/b&gt;" style="html=1;dropTarget=0;" parent="1" vertex="1">
                    <mxGeometry x="1760" y="290" width="180" height="90" as="geometry"/>
                </mxCell>
                <mxCell id="43" value="" style="shape=module;jettyWidth=8;jettyHeight=4;" parent="42" vertex="1">
                    <mxGeometry x="1" width="20" height="20" relative="1" as="geometry">
                        <mxPoint x="-27" y="7" as="offset"/>
                    </mxGeometry>
                </mxCell>
                <mxCell id="45" value="Anwender" style="shape=umlActor;verticalLabelPosition=bottom;verticalAlign=top;html=1;" parent="1" vertex="1">
                    <mxGeometry x="260" y="60" width="50" height="110" as="geometry"/>
                </mxCell>
                <mxCell id="46" value="" style="shape=umlLifeline;participant=umlEntity;perimeter=lifelinePerimeter;whiteSpace=wrap;html=1;container=1;collapsible=0;recursiveResize=0;verticalAlign=top;spacingTop=36;outlineConnect=0;" parent="1" vertex="1">
                    <mxGeometry x="470" y="160" width="40" height="110" as="geometry"/>
                </mxCell>
                <mxCell id="47" value="Backend-API" style="text;align=center;fontStyle=1;verticalAlign=middle;spacingLeft=3;spacingRight=3;strokeColor=none;rotatable=0;points=[[0,0.5],[1,0.5]];portConstraint=eastwest;" parent="1" vertex="1">
                    <mxGeometry x="450" y="120" width="80" height="26" as="geometry"/>
                </mxCell>
                <mxCell id="48" value="benutzt" style="endArrow=block;dashed=1;endFill=0;endSize=12;html=1;" parent="1" edge="1">
                    <mxGeometry x="-0.0667" y="10" width="160" relative="1" as="geometry">
                        <mxPoint x="320" y="180" as="sourcePoint"/>
                        <mxPoint x="470" y="180" as="targetPoint"/>
                        <mxPoint x="1" as="offset"/>
                    </mxGeometry>
                </mxCell>
                <mxCell id="49" value="" style="rounded=0;orthogonalLoop=1;jettySize=auto;html=1;endArrow=none;endFill=0;sketch=0;sourcePerimeterSpacing=0;targetPerimeterSpacing=0;exitX=1;exitY=0.5;exitDx=0;exitDy=0;" parent="1" source="37" target="51" edge="1">
                    <mxGeometry relative="1" as="geometry">
                        <mxPoint x="1600" y="465" as="sourcePoint"/>
                    </mxGeometry>
                </mxCell>
                <mxCell id="50" value="" style="rounded=0;orthogonalLoop=1;jettySize=auto;html=1;endArrow=halfCircle;endFill=0;entryX=0.5;entryY=0.5;endSize=6;strokeWidth=1;sketch=0;exitX=0;exitY=0.5;exitDx=0;exitDy=0;" parent="1" source="42" target="51" edge="1">
                    <mxGeometry relative="1" as="geometry">
                        <mxPoint x="1640" y="465" as="sourcePoint"/>
                    </mxGeometry>
                </mxCell>
                <mxCell id="52" value="verschlüsselt abgespeichert" style="edgeLabel;html=1;align=center;verticalAlign=middle;resizable=0;points=[];" parent="50" vertex="1" connectable="0">
                    <mxGeometry x="-0.2576" y="3" relative="1" as="geometry">
                        <mxPoint x="-55" y="-28" as="offset"/>
                    </mxGeometry>
                </mxCell>
                <mxCell id="51" value="" style="ellipse;whiteSpace=wrap;html=1;align=center;aspect=fixed;resizable=0;points=[];outlineConnect=0;sketch=0;" parent="1" vertex="1">
                    <mxGeometry x="1570" y="330" width="10" height="10" as="geometry"/>
                </mxCell>
                <mxCell id="53" value="«Ressource»&lt;br&gt;&lt;b&gt;Vorfall-Anhang&lt;/b&gt;" style="html=1;dropTarget=0;" parent="1" vertex="1">
                    <mxGeometry x="40" y="440" width="180" height="90" as="geometry"/>
                </mxCell>
                <mxCell id="54" value="" style="shape=module;jettyWidth=8;jettyHeight=4;" parent="53" vertex="1">
                    <mxGeometry x="1" width="20" height="20" relative="1" as="geometry">
                        <mxPoint x="-27" y="7" as="offset"/>
                    </mxGeometry>
                </mxCell>
                <mxCell id="55" value="«Ressource»&lt;br&gt;&lt;b&gt;Benutzer&lt;/b&gt;" style="html=1;dropTarget=0;" vertex="1" parent="1">
                    <mxGeometry x="40" y="580" width="180" height="90" as="geometry"/>
                </mxCell>
                <mxCell id="56" value="" style="shape=module;jettyWidth=8;jettyHeight=4;" vertex="1" parent="55">
                    <mxGeometry x="1" width="20" height="20" relative="1" as="geometry">
                        <mxPoint x="-27" y="7" as="offset"/>
                    </mxGeometry>
                </mxCell>
                <mxCell id="57" value="" style="fontStyle=0;labelPosition=right;verticalLabelPosition=middle;align=left;verticalAlign=middle;spacingLeft=2;" vertex="1" parent="1">
                    <mxGeometry x="330" y="470" width="30" height="30" as="geometry"/>
                </mxCell>
                <mxCell id="58" value="" style="fontStyle=0;labelPosition=right;verticalLabelPosition=middle;align=left;verticalAlign=middle;spacingLeft=2;" vertex="1" parent="1">
                    <mxGeometry x="330" y="610" width="30" height="30" as="geometry"/>
                </mxCell>
                <mxCell id="59" value="" style="rounded=0;orthogonalLoop=1;jettySize=auto;html=1;endArrow=none;endFill=0;sketch=0;sourcePerimeterSpacing=0;targetPerimeterSpacing=0;" edge="1" target="61" parent="1" source="53">
                    <mxGeometry relative="1" as="geometry">
                        <mxPoint x="285" y="485" as="sourcePoint"/>
                    </mxGeometry>
                </mxCell>
                <mxCell id="60" value="" style="rounded=0;orthogonalLoop=1;jettySize=auto;html=1;endArrow=halfCircle;endFill=0;entryX=0.5;entryY=0.5;endSize=6;strokeWidth=1;sketch=0;exitX=0;exitY=0.5;exitDx=0;exitDy=0;" edge="1" target="61" parent="1" source="57">
                    <mxGeometry relative="1" as="geometry">
                        <mxPoint x="325" y="485" as="sourcePoint"/>
                    </mxGeometry>
                </mxCell>
                <mxCell id="61" value="" style="ellipse;whiteSpace=wrap;html=1;align=center;aspect=fixed;resizable=0;points=[];outlineConnect=0;sketch=0;" vertex="1" parent="1">
                    <mxGeometry x="280" y="480" width="10" height="10" as="geometry"/>
                </mxCell>
                <mxCell id="62" value="" style="rounded=0;orthogonalLoop=1;jettySize=auto;html=1;endArrow=none;endFill=0;sketch=0;sourcePerimeterSpacing=0;targetPerimeterSpacing=0;" edge="1" target="64" parent="1" source="55">
                    <mxGeometry relative="1" as="geometry">
                        <mxPoint x="285" y="625" as="sourcePoint"/>
                    </mxGeometry>
                </mxCell>
                <mxCell id="63" value="" style="rounded=0;orthogonalLoop=1;jettySize=auto;html=1;endArrow=halfCircle;endFill=0;entryX=0.5;entryY=0.5;endSize=6;strokeWidth=1;sketch=0;exitX=0;exitY=0.5;exitDx=0;exitDy=0;" edge="1" target="64" parent="1" source="58">
                    <mxGeometry relative="1" as="geometry">
                        <mxPoint x="325" y="625" as="sourcePoint"/>
                    </mxGeometry>
                </mxCell>
                <mxCell id="64" value="" style="ellipse;whiteSpace=wrap;html=1;align=center;aspect=fixed;resizable=0;points=[];outlineConnect=0;sketch=0;" vertex="1" parent="1">
                    <mxGeometry x="280" y="620" width="10" height="10" as="geometry"/>
                </mxCell>
                <mxCell id="65" value="«Ressource»&lt;br&gt;&lt;b&gt;Organisation&lt;/b&gt;" style="html=1;dropTarget=0;" vertex="1" parent="1">
                    <mxGeometry x="40" y="730" width="180" height="90" as="geometry"/>
                </mxCell>
                <mxCell id="66" value="" style="shape=module;jettyWidth=8;jettyHeight=4;" vertex="1" parent="65">
                    <mxGeometry x="1" width="20" height="20" relative="1" as="geometry">
                        <mxPoint x="-27" y="7" as="offset"/>
                    </mxGeometry>
                </mxCell>
                <mxCell id="70" value="" style="fontStyle=0;labelPosition=right;verticalLabelPosition=middle;align=left;verticalAlign=middle;spacingLeft=2;" vertex="1" parent="1">
                    <mxGeometry x="330" y="760" width="30" height="30" as="geometry"/>
                </mxCell>
                <mxCell id="71" value="" style="rounded=0;orthogonalLoop=1;jettySize=auto;html=1;endArrow=none;endFill=0;sketch=0;sourcePerimeterSpacing=0;targetPerimeterSpacing=0;" edge="1" target="73" parent="1" source="65">
                    <mxGeometry relative="1" as="geometry">
                        <mxPoint x="285" y="775" as="sourcePoint"/>
                    </mxGeometry>
                </mxCell>
                <mxCell id="72" value="" style="rounded=0;orthogonalLoop=1;jettySize=auto;html=1;endArrow=halfCircle;endFill=0;entryX=0.5;entryY=0.5;endSize=6;strokeWidth=1;sketch=0;exitX=0;exitY=0.5;exitDx=0;exitDy=0;" edge="1" target="73" parent="1" source="70">
                    <mxGeometry relative="1" as="geometry">
                        <mxPoint x="325" y="775" as="sourcePoint"/>
                    </mxGeometry>
                </mxCell>
                <mxCell id="73" value="" style="ellipse;whiteSpace=wrap;html=1;align=center;aspect=fixed;resizable=0;points=[];outlineConnect=0;sketch=0;" vertex="1" parent="1">
                    <mxGeometry x="280" y="770" width="10" height="10" as="geometry"/>
                </mxCell>
                <mxCell id="74" value="" style="endArrow=none;startArrow=none;endFill=0;startFill=0;endSize=8;html=1;verticalAlign=bottom;labelBackgroundColor=none;strokeWidth=3;exitX=1;exitY=0.5;exitDx=0;exitDy=0;entryX=0.5;entryY=1;entryDx=0;entryDy=0;jumpSize=2;" edge="1" parent="1" source="57" target="3">
                    <mxGeometry width="160" relative="1" as="geometry">
                        <mxPoint x="370" y="480" as="sourcePoint"/>
                        <mxPoint x="530" y="480" as="targetPoint"/>
                        <Array as="points">
                            <mxPoint x="440" y="485"/>
                        </Array>
                    </mxGeometry>
                </mxCell>
                <mxCell id="75" value="" style="endArrow=none;startArrow=none;endFill=0;startFill=0;endSize=8;html=1;verticalAlign=bottom;labelBackgroundColor=none;strokeWidth=3;exitX=1;exitY=0.5;exitDx=0;exitDy=0;entryX=0.75;entryY=1;entryDx=0;entryDy=0;jumpSize=2;" edge="1" parent="1" source="58" target="3">
                    <mxGeometry width="160" relative="1" as="geometry">
                        <mxPoint x="400" y="565" as="sourcePoint"/>
                        <mxPoint x="480" y="460" as="targetPoint"/>
                        <Array as="points">
                            <mxPoint x="485" y="625"/>
                        </Array>
                    </mxGeometry>
                </mxCell>
                <mxCell id="76" value="" style="endArrow=none;startArrow=none;endFill=0;startFill=0;endSize=8;html=1;verticalAlign=bottom;labelBackgroundColor=none;strokeWidth=3;exitX=1;exitY=0.5;exitDx=0;exitDy=0;jumpSize=2;" edge="1" parent="1" source="70">
                    <mxGeometry width="160" relative="1" as="geometry">
                        <mxPoint x="450" y="790" as="sourcePoint"/>
                        <mxPoint x="530" y="380" as="targetPoint"/>
                        <Array as="points">
                            <mxPoint x="530" y="775"/>
                        </Array>
                    </mxGeometry>
                </mxCell>
                <mxCell id="77" value="«Ressource»&lt;br&gt;&lt;b&gt;Benutzer-Anlage&lt;/b&gt;" style="html=1;dropTarget=0;" vertex="1" parent="1">
                    <mxGeometry x="600" y="1000" width="180" height="90" as="geometry"/>
                </mxCell>
                <mxCell id="78" value="" style="shape=module;jettyWidth=8;jettyHeight=4;" vertex="1" parent="77">
                    <mxGeometry x="1" width="20" height="20" relative="1" as="geometry">
                        <mxPoint x="-27" y="7" as="offset"/>
                    </mxGeometry>
                </mxCell>
                <mxCell id="80" value="" style="fontStyle=0;labelPosition=right;verticalLabelPosition=middle;align=left;verticalAlign=middle;spacingLeft=2;" vertex="1" parent="1">
                    <mxGeometry x="675" y="900" width="30" height="30" as="geometry"/>
                </mxCell>
                <mxCell id="81" value="" style="rounded=0;orthogonalLoop=1;jettySize=auto;html=1;endArrow=none;endFill=0;sketch=0;sourcePerimeterSpacing=0;targetPerimeterSpacing=0;jumpSize=2;" edge="1" target="83" parent="1" source="77">
                    <mxGeometry relative="1" as="geometry">
                        <mxPoint x="670" y="915" as="sourcePoint"/>
                    </mxGeometry>
                </mxCell>
                <mxCell id="82" value="" style="rounded=0;orthogonalLoop=1;jettySize=auto;html=1;endArrow=halfCircle;endFill=0;entryX=0.5;entryY=0.5;endSize=6;strokeWidth=1;sketch=0;jumpSize=2;exitX=0.5;exitY=1;exitDx=0;exitDy=0;" edge="1" target="83" parent="1" source="80">
                    <mxGeometry relative="1" as="geometry">
                        <mxPoint x="710" y="915" as="sourcePoint"/>
                    </mxGeometry>
                </mxCell>
                <mxCell id="83" value="" style="ellipse;whiteSpace=wrap;html=1;align=center;aspect=fixed;resizable=0;points=[];outlineConnect=0;sketch=0;" vertex="1" parent="1">
                    <mxGeometry x="685" y="960" width="10" height="10" as="geometry"/>
                </mxCell>
                <mxCell id="84" value="«component»&lt;br&gt;&lt;b&gt;Schema-Validierung&lt;/b&gt;" style="html=1;dropTarget=0;" vertex="1" parent="1">
                    <mxGeometry x="600" y="720" width="180" height="90" as="geometry"/>
                </mxCell>
                <mxCell id="85" value="" style="shape=module;jettyWidth=8;jettyHeight=4;" vertex="1" parent="84">
                    <mxGeometry x="1" width="20" height="20" relative="1" as="geometry">
                        <mxPoint x="-27" y="7" as="offset"/>
                    </mxGeometry>
                </mxCell>
                <mxCell id="86" value="«component»&lt;br&gt;&lt;b&gt;E-Mail-Validierung&lt;/b&gt;" style="html=1;dropTarget=0;" vertex="1" parent="1">
                    <mxGeometry x="950" y="720" width="180" height="90" as="geometry"/>
                </mxCell>
                <mxCell id="87" value="" style="shape=module;jettyWidth=8;jettyHeight=4;" vertex="1" parent="86">
                    <mxGeometry x="1" width="20" height="20" relative="1" as="geometry">
                        <mxPoint x="-27" y="7" as="offset"/>
                    </mxGeometry>
                </mxCell>
                <mxCell id="88" value="" style="rounded=0;orthogonalLoop=1;jettySize=auto;html=1;endArrow=none;endFill=0;sketch=0;sourcePerimeterSpacing=0;targetPerimeterSpacing=0;jumpSize=2;" edge="1" target="90" parent="1" source="80">
                    <mxGeometry relative="1" as="geometry">
                        <mxPoint x="670" y="815" as="sourcePoint"/>
                    </mxGeometry>
                </mxCell>
                <mxCell id="89" value="" style="rounded=0;orthogonalLoop=1;jettySize=auto;html=1;endArrow=halfCircle;endFill=0;entryX=0.5;entryY=0.5;endSize=6;strokeWidth=1;sketch=0;jumpSize=2;exitX=0.5;exitY=1;exitDx=0;exitDy=0;" edge="1" target="90" parent="1" source="84">
                    <mxGeometry relative="1" as="geometry">
                        <mxPoint x="710" y="815" as="sourcePoint"/>
                    </mxGeometry>
                </mxCell>
                <mxCell id="90" value="" style="ellipse;whiteSpace=wrap;html=1;align=center;aspect=fixed;resizable=0;points=[];outlineConnect=0;sketch=0;" vertex="1" parent="1">
                    <mxGeometry x="685" y="850" width="10" height="10" as="geometry"/>
                </mxCell>
                <mxCell id="91" value="" style="rounded=0;orthogonalLoop=1;jettySize=auto;html=1;endArrow=none;endFill=0;sketch=0;sourcePerimeterSpacing=0;targetPerimeterSpacing=0;jumpSize=2;" edge="1" target="93" parent="1" source="84">
                    <mxGeometry relative="1" as="geometry">
                        <mxPoint x="845" y="765" as="sourcePoint"/>
                    </mxGeometry>
                </mxCell>
                <mxCell id="92" value="" style="rounded=0;orthogonalLoop=1;jettySize=auto;html=1;endArrow=halfCircle;endFill=0;entryX=0.5;entryY=0.5;endSize=6;strokeWidth=1;sketch=0;jumpSize=2;" edge="1" target="93" parent="1" source="86">
                    <mxGeometry relative="1" as="geometry">
                        <mxPoint x="885" y="765" as="sourcePoint"/>
                    </mxGeometry>
                </mxCell>
                <mxCell id="93" value="" style="ellipse;whiteSpace=wrap;html=1;align=center;aspect=fixed;resizable=0;points=[];outlineConnect=0;sketch=0;" vertex="1" parent="1">
                    <mxGeometry x="860" y="760" width="10" height="10" as="geometry"/>
                </mxCell>
                <mxCell id="94" value="«database»&lt;br&gt;&lt;b&gt;Transaktions-Tabelle&lt;/b&gt;" style="html=1;dropTarget=0;" vertex="1" parent="1">
                    <mxGeometry x="950" y="1000" width="180" height="90" as="geometry"/>
                </mxCell>
                <mxCell id="95" value="" style="shape=module;jettyWidth=8;jettyHeight=4;" vertex="1" parent="94">
                    <mxGeometry x="1" width="20" height="20" relative="1" as="geometry">
                        <mxPoint x="-27" y="7" as="offset"/>
                    </mxGeometry>
                </mxCell>
                <mxCell id="97" value="Transaktion initialisieren" style="rounded=0;orthogonalLoop=1;jettySize=auto;html=1;endArrow=none;endFill=0;sketch=0;sourcePerimeterSpacing=0;targetPerimeterSpacing=0;jumpSize=2;" edge="1" target="99" parent="1" source="86">
                    <mxGeometry y="-80" relative="1" as="geometry">
                        <mxPoint x="1020" y="895" as="sourcePoint"/>
                        <mxPoint as="offset"/>
                    </mxGeometry>
                </mxCell>
                <mxCell id="98" value="" style="rounded=0;orthogonalLoop=1;jettySize=auto;html=1;endArrow=halfCircle;endFill=0;entryX=0.5;entryY=0.5;endSize=6;strokeWidth=1;sketch=0;jumpSize=2;exitX=0.5;exitY=0;exitDx=0;exitDy=0;" edge="1" target="99" parent="1" source="94">
                    <mxGeometry relative="1" as="geometry">
                        <mxPoint x="1060" y="895" as="sourcePoint"/>
                    </mxGeometry>
                </mxCell>
                <mxCell id="99" value="" style="ellipse;whiteSpace=wrap;html=1;align=center;aspect=fixed;resizable=0;points=[];outlineConnect=0;sketch=0;" vertex="1" parent="1">
                    <mxGeometry x="1035" y="930" width="10" height="10" as="geometry"/>
                </mxCell>
                <mxCell id="100" value="«Ressource»&lt;br&gt;&lt;b&gt;Benutzer-Bestätigung&lt;/b&gt;" style="html=1;dropTarget=0;" vertex="1" parent="1">
                    <mxGeometry x="1320" y="1000" width="180" height="90" as="geometry"/>
                </mxCell>
                <mxCell id="101" value="" style="shape=module;jettyWidth=8;jettyHeight=4;" vertex="1" parent="100">
                    <mxGeometry x="1" width="20" height="20" relative="1" as="geometry">
                        <mxPoint x="-27" y="7" as="offset"/>
                    </mxGeometry>
                </mxCell>
                <mxCell id="102" value="" style="fontStyle=0;labelPosition=right;verticalLabelPosition=middle;align=left;verticalAlign=middle;spacingLeft=2;" vertex="1" parent="1">
                    <mxGeometry x="1395" y="900" width="30" height="30" as="geometry"/>
                </mxCell>
                <mxCell id="103" value="" style="rounded=0;orthogonalLoop=1;jettySize=auto;html=1;endArrow=none;endFill=0;sketch=0;sourcePerimeterSpacing=0;targetPerimeterSpacing=0;jumpSize=2;" edge="1" target="105" parent="1" source="100">
                    <mxGeometry relative="1" as="geometry">
                        <mxPoint x="1390" y="915" as="sourcePoint"/>
                    </mxGeometry>
                </mxCell>
                <mxCell id="104" value="E-Mail bestätigen" style="rounded=0;orthogonalLoop=1;jettySize=auto;html=1;endArrow=halfCircle;endFill=0;entryX=0.5;entryY=0.5;endSize=6;strokeWidth=1;sketch=0;jumpSize=2;exitX=0.5;exitY=1;exitDx=0;exitDy=0;" edge="1" target="105" parent="1" source="102">
                    <mxGeometry x="0.7143" y="60" relative="1" as="geometry">
                        <mxPoint x="1430" y="915" as="sourcePoint"/>
                        <mxPoint as="offset"/>
                    </mxGeometry>
                </mxCell>
                <mxCell id="105" value="" style="ellipse;whiteSpace=wrap;html=1;align=center;aspect=fixed;resizable=0;points=[];outlineConnect=0;sketch=0;" vertex="1" parent="1">
                    <mxGeometry x="1405" y="960" width="10" height="10" as="geometry"/>
                </mxCell>
                <mxCell id="106" value="«component»&lt;br&gt;&lt;b&gt;Relationale-Zuordnung&lt;/b&gt;" style="html=1;dropTarget=0;" vertex="1" parent="1">
                    <mxGeometry x="1320" y="720" width="180" height="90" as="geometry"/>
                </mxCell>
                <mxCell id="107" value="" style="shape=module;jettyWidth=8;jettyHeight=4;" vertex="1" parent="106">
                    <mxGeometry x="1" width="20" height="20" relative="1" as="geometry">
                        <mxPoint x="-27" y="7" as="offset"/>
                    </mxGeometry>
                </mxCell>
                <mxCell id="111" value="" style="rounded=0;orthogonalLoop=1;jettySize=auto;html=1;endArrow=none;endFill=0;sketch=0;sourcePerimeterSpacing=0;targetPerimeterSpacing=0;jumpSize=2;" edge="1" target="113" parent="1" source="94">
                    <mxGeometry relative="1" as="geometry">
                        <mxPoint x="1195" y="1045" as="sourcePoint"/>
                    </mxGeometry>
                </mxCell>
                <mxCell id="112" value="" style="rounded=0;orthogonalLoop=1;jettySize=auto;html=1;endArrow=halfCircle;endFill=0;entryX=0.5;entryY=0.5;endSize=6;strokeWidth=1;sketch=0;jumpSize=2;exitX=0;exitY=0.5;exitDx=0;exitDy=0;" edge="1" target="113" parent="1" source="106">
                    <mxGeometry relative="1" as="geometry">
                        <mxPoint x="1235" y="1045" as="sourcePoint"/>
                    </mxGeometry>
                </mxCell>
                <mxCell id="122" value="Transaktion abschließen" style="edgeLabel;html=1;align=center;verticalAlign=middle;resizable=0;points=[];" vertex="1" connectable="0" parent="112">
                    <mxGeometry x="0.2044" y="-3" relative="1" as="geometry">
                        <mxPoint x="-13" y="-54" as="offset"/>
                    </mxGeometry>
                </mxCell>
                <mxCell id="113" value="" style="ellipse;whiteSpace=wrap;html=1;align=center;aspect=fixed;resizable=0;points=[];outlineConnect=0;sketch=0;" vertex="1" parent="1">
                    <mxGeometry x="1210" y="870" width="10" height="10" as="geometry"/>
                </mxCell>
                <mxCell id="119" value="" style="rounded=0;orthogonalLoop=1;jettySize=auto;html=1;endArrow=none;endFill=0;sketch=0;sourcePerimeterSpacing=0;targetPerimeterSpacing=0;jumpSize=2;" edge="1" target="121" parent="1" source="102">
                    <mxGeometry relative="1" as="geometry">
                        <mxPoint x="1390" y="815" as="sourcePoint"/>
                    </mxGeometry>
                </mxCell>
                <mxCell id="120" value="" style="rounded=0;orthogonalLoop=1;jettySize=auto;html=1;endArrow=halfCircle;endFill=0;entryX=0.5;entryY=0.5;endSize=6;strokeWidth=1;sketch=0;jumpSize=2;exitX=0.5;exitY=1;exitDx=0;exitDy=0;" edge="1" target="121" parent="1" source="106">
                    <mxGeometry relative="1" as="geometry">
                        <mxPoint x="1440" y="815" as="sourcePoint"/>
                    </mxGeometry>
                </mxCell>
                <mxCell id="121" value="" style="ellipse;whiteSpace=wrap;html=1;align=center;aspect=fixed;resizable=0;points=[];outlineConnect=0;sketch=0;" vertex="1" parent="1">
                    <mxGeometry x="1405" y="850" width="10" height="10" as="geometry"/>
                </mxCell>
                <mxCell id="126" value="" style="rounded=0;orthogonalLoop=1;jettySize=auto;html=1;endArrow=none;endFill=0;sketch=0;sourcePerimeterSpacing=0;targetPerimeterSpacing=0;jumpSize=2;" edge="1" target="128" parent="1" source="106">
                    <mxGeometry relative="1" as="geometry">
                        <mxPoint x="1400" y="635" as="sourcePoint"/>
                    </mxGeometry>
                </mxCell>
                <mxCell id="129" value="Benutzer anlegen (&amp;amp; opt. Organisation)" style="edgeLabel;html=1;align=center;verticalAlign=middle;resizable=0;points=[];" vertex="1" connectable="0" parent="126">
                    <mxGeometry x="0.266" y="-5" relative="1" as="geometry">
                        <mxPoint x="-115" y="-9" as="offset"/>
                    </mxGeometry>
                </mxCell>
                <mxCell id="127" value="" style="rounded=0;orthogonalLoop=1;jettySize=auto;html=1;endArrow=halfCircle;endFill=0;entryX=0.5;entryY=0.5;endSize=6;strokeWidth=1;sketch=0;jumpSize=2;exitX=0.5;exitY=1;exitDx=0;exitDy=0;" edge="1" target="128" parent="1" source="37">
                    <mxGeometry relative="1" as="geometry">
                        <mxPoint x="1440" y="635" as="sourcePoint"/>
                    </mxGeometry>
                </mxCell>
                <mxCell id="128" value="" style="ellipse;whiteSpace=wrap;html=1;align=center;aspect=fixed;resizable=0;points=[];outlineConnect=0;sketch=0;" vertex="1" parent="1">
                    <mxGeometry x="1405" y="550" width="10" height="10" as="geometry"/>
                </mxCell>
            </root>
        </mxGraphModel>
    </diagram>
</mxfile>